<!DOCTYPE svg PUBLIC "-//W3C//DTD SVG 1.1//EN" "http://www.w3.org/Graphics/SVG/1.1/DTD/svg11.dtd">
<!-- Uploaded to: SVG Repo, www.svgrepo.com, Transformed by: SVG Repo Mixer Tools -->
<svg version="1.1" id="Capa_1" xmlns="http://www.w3.org/2000/svg" xmlns:xlink="http://www.w3.org/1999/xlink" viewBox="0 0 57 57" xml:space="preserve" width="800px" height="800px" fill="#ffffff" stroke="#ffffff">
<g id="SVGRepo_bgCarrier" stroke-width="0"/>
<g id="SVGRepo_tracerCarrier" stroke-linecap="round" stroke-linejoin="round"/>
<g id="SVGRepo_iconCarrier"> <path style="fill:none;stroke:#556080;stroke-width:2;stroke-linecap:round;stroke-miterlimit:10;" d="M44,28v6 c0,8.271-6.729,15-15,15s-15-6.729-15-15v-6"/> <line style="fill:none;stroke:#556080;stroke-width:2;stroke-linecap:round;stroke-miterlimit:10;" x1="29" y1="49" x2="29" y2="56"/> <polyline style="fill:none;stroke:#556080;stroke-width:2;stroke-linecap:round;stroke-miterlimit:10;" points="35,56 29,56 23,56 "/> <path style="fill:#C7CAC7;" d="M29,44L29,44c-5.5,0-10-4.5-10-10V10c0-5.5,4.5-10,10-10h0c5.5,0,10,4.5,10,10v24 C39,39.5,34.5,44,29,44z"/> <path style="fill:#AFB6BB;" d="M39,34V10c0-5.5-4.5-10-10-10v44C34.5,44,39,39.5,39,34z"/> <line style="fill:none;stroke:#D75A4A;stroke-width:2;stroke-linecap:round;stroke-miterlimit:10;" x1="6" y1="49" x2="51" y2="4"/> </g>
</svg>